<svg viewBox="-3.125 -3.125 100 100" fill="none" xmlns="http://www.w3.org/2000/svg" id="Github-Circle--Streamline-Iconoir.svg" height="100" width="100"><desc>Github Circle Streamline Icon: https://streamlinehq.com</desc><path d="M46.87500000000001 89.607421875c23.600390625000003 0 42.73242187500001 -19.132031250000004 42.73242187500001 -42.73242187500001 0 -23.600390625000003 -19.132031250000004 -42.73242187500001 -42.73242187500001 -42.73242187500001C23.274609375000004 4.142578125000001 4.142578125000001 23.274609375000004 4.142578125000001 46.87500000000001c0 23.600390625000003 19.132031250000004 42.73242187500001 42.73242187500001 42.73242187500001Z" stroke="currentColor" stroke-linecap="round" stroke-linejoin="round" stroke-width="6.25"></path><path d="M56.84570312500001 76.787890625v-7.961328125000001c0.10703125000000001 -1.3222656250000002 -0.0765625 -2.6523437500000004 -0.53828125 -3.9003906250000004 -0.46171875000000007 -1.2484375 -1.1910156250000001 -2.3867187500000004 -2.139453125 -3.3390625000000003 8.945312500000002 -0.9710937500000001 18.346484375000003 -4.272265625 18.346484375000003 -19.417578125000002 -0.0007812500000000002 -3.8726562500000004 -1.53046875 -7.597265625000001 -4.273046875000001 -10.40234375 1.2984375000000001 -3.3882812500000004 1.2066406250000001 -7.133203125000001 -0.256640625 -10.457421875 0 0 -3.3617187500000005 -0.9707031250000001 -11.139062500000001 4.10546875 -6.529296875000001 -1.723046875 -13.412109375000002 -1.723046875 -19.941796875 0 -7.777343750000001 -5.076171875000001 -11.139062500000001 -4.10546875 -11.139062500000001 -4.10546875 -1.4628906250000002 3.3242187500000004 -1.5546875000000002 7.069531250000001 -0.25625000000000003 10.457421875 -2.7628906250000003 2.8257812500000004 -4.29453125 6.583984375000001 -4.273046875000001 10.485546875 0 15.034375000000002 9.401171875000001 18.335546875000002 18.34609375 19.4171875 -0.9371093750000001 0.9429687500000001 -1.6597656250000001 2.0675781250000003 -2.1210937500000004 3.301171875 -0.46171875000000007 1.2328125 -0.6511718750000001 2.5464843750000004 -0.556640625 3.8554687500000004v7.961328125000001" stroke="currentColor" stroke-linecap="round" stroke-linejoin="round" stroke-width="6.25"></path><path d="M36.903906250000006 71.24023437500001c-8.546484375 2.6996093750000005 -15.668359375000001 0 -19.941796875 -8.321875" stroke="currentColor" stroke-linecap="round" stroke-linejoin="round" stroke-width="6.25"></path></svg>