<svg xmlns="http://www.w3.org/2000/svg" fill="none" viewBox="-0.5 -0.5 16 16" id="User-Circle-Duotone--Streamline-Phosphor.svg" height="16" width="16"><desc>User Circle Duotone Streamline Icon: https://streamlinehq.com</desc><g id="user-circle-duotone"><path id="Vector" fill="#c4c4c4" d="M14.284605468750001 7.499988281249999C14.285595703125 8.451457031250001 14.086013671875 9.392466796875 13.6987265625 10.26160546875C13.311509765624999 11.13066796875 12.74534765625 11.908423828125 12.037201171875 12.543919921875C11.611470703124999 11.706515625 10.96219921875 11.0033203125 10.161404296875 10.5122109375C9.3605390625 10.021107421875001 8.439386718749999 9.76130859375 7.5 9.761525390625C8.059095703125 9.761525390625 8.605675781250001 9.59572265625 9.070564453125002 9.285117187500001C9.535453125 8.974435546875 9.897791015625 8.532943359374999 10.111716796875 8.016392578125C10.32571875 7.49984765625 10.3816875 6.931494140625 10.272568359375 6.38307421875C10.16351953125 5.83471875 9.8942578125 5.3310175781249995 9.4989140625 4.93566796875C9.1035703125 4.540318359375 8.599880859375 4.27107421875 8.05153125 4.16199609375C7.503111328125 4.0529238281249995 6.9347578125 4.108898437500001 6.418207031250001 4.322865234375C5.901662109375 4.536826171875 5.46012890625 4.899158203125 5.1495 5.3640468750000005C4.8388828125000005 5.828923828125 4.673080078125 6.375509765625 4.673080078125 6.93460546875C4.673080078125 7.684376953125001 4.97091796875 8.4033984375 5.5010625 8.933519531249999C6.031201171875001 9.463705078125 6.750228515625 9.761525390625 7.5 9.761525390625C6.56061328125 9.76130859375 5.6394609375 10.021107421875001 4.83861328125 10.5122109375C4.0377832031250005 11.0033203125 3.38853515625 11.706515625 2.9627929687499996 12.543919921875C2.1219667968750002 11.78757421875 1.4835351562499999 10.833134765625001 1.1055527343749998 9.76725C0.7275703124999999 8.701359375 0.62203125 7.557867187499999 0.798533203125 6.4408125C0.9750351562499999 5.32372265625 1.4279765625 4.2684960937500005 2.116166015625 3.3710625000000003C2.804361328125 2.47362890625 3.705978515625 1.76246484375 4.739021484375 1.3022402343750001C5.772046875 0.8420097656250001 6.903802734375 0.6473203125 8.03124609375 0.735873046875C9.1586953125 0.824419921875 10.24613671875 1.19340234375 11.194640625000002 1.8092578125C12.14314453125 2.4251250000000004 12.922734375000001 3.26832421875 13.462394531249998 4.26219140625C14.001984375 5.25605859375 14.28467578125 6.36908203125 14.284605468750001 7.499988281249999Z" stroke-width="1"></path><path id="Vector_2" fill="#000" d="M7.5 0.15C6.046330078125 0.15 4.6252734375 0.581068359375 3.41656640625 1.3887011718750002C2.2078652343750003 2.196322265625 1.26580078125 3.344232421875 0.7095 4.687265624999999C0.15319921874999998 6.030275390625 0.007640624999999999 7.5081152343749995 0.29124609375 8.93387109375C0.5748398437500001 10.359626953125002 1.274865234375 11.669267578125 2.302775390625 12.69720703125C3.33069140625 13.725146484375001 4.64033203125 14.42516015625 6.066117187500001 14.708771484375C7.491873046875 14.9923828125 8.969712890625 14.846794921875 10.3127109375 14.290458984375C11.655779296875 13.734193359374999 12.803654296875001 12.792123046875 13.6113046875 11.5833984375C14.418955078124998 10.37475 14.849988281249999 8.953658203125 14.849988281249999 7.499988281249999C14.8479375 5.55125390625 14.072865234375 3.682974609375 12.694957031249999 2.305037109375C11.317048828125 0.92709375 9.448734374999999 0.152056640625 7.5 0.15ZM3.689314453125 12.41176171875C4.098328125 11.772099609375001 4.661783203125 11.24565234375 5.3277480468750005 10.881052734375C5.993677734375 10.5163828125 6.740759765625 10.325279296875 7.5 10.325279296875C8.259240234375 10.325279296875 9.006322265625 10.5163828125 9.672275390625 10.881052734375C10.338228515625 11.245658203125 10.901701171875 11.772099609375001 11.310685546875 12.41176171875C10.221123046874999 13.259126953125 8.880240234375 13.719140625 7.5 13.719140625S4.778859375000001 13.259126953125 3.689314453125 12.41176171875ZM5.238462890625 6.93460546875C5.238462890625 6.487312500000001 5.3711015625 6.0500625 5.619603515625 5.6781796875C5.8680878906250005 5.306255859375001 6.221314453125 5.016392578125 6.634541015625 4.84522265625C7.04776171875 4.674046875 7.502542968749999 4.6292578125 7.9412109375 4.71652734375C8.379878906250001 4.80378515625 8.782857421875 5.01917578125 9.0991171875 5.335458984374999C9.415447265625 5.651748046875 9.630791015625 6.0547265625 9.718072265625 6.49339453125C9.805353515624999 6.932132812500001 9.760546875000001 7.386837890625 9.589376953125 7.8000644531250005C9.41820703125 8.213291015625 9.128373046875 8.56651171875 8.75642578125 8.815001953125C8.38454296875 9.063486328125 7.947287109375 9.19613671875 7.5 9.19613671875C6.90019921875 9.19613671875 6.324990234375 8.957900390625 5.9008828125 8.53372265625C5.476740234375 8.109615234375 5.238462890625 7.53440625 5.238462890625 6.93460546875ZM12.147451171875 11.627994140624999C11.516912109375 10.714265625 10.630248046875 10.007326171875 9.598986328125 9.596150390625C10.152919921875 9.159814453125 10.557169921875001 8.56177734375 10.755410156249999 7.885083984375C10.95371484375 7.208390625 10.936189453125 6.48675 10.70530078125 5.8204453125C10.474412109374999 5.154210937499999 10.041679687499999 4.576453125 9.467179687500002 4.1675390625C8.89275 3.758625 8.20510546875 3.5388984375 7.5 3.5388984375S6.1072500000000005 3.758625 5.5328203125 4.1675390625C4.95833203125 4.576453125 4.5255703125 5.154210937499999 4.294693359375 5.8204453125C4.06381640625 6.48675 4.0462968749999995 7.208390625 4.244578124999999 7.885083984375C4.4428476562500006 8.56177734375 4.847068359374999 9.159814453125 5.401013671875 9.596150390625C4.369763671875 10.007326171875 3.4831171875 10.714265625 2.85254296875 11.627994140624999C2.055755859375 10.732001953125 1.5349746093749999 9.624703125 1.3529003906250001 8.439585937499999C1.170826171875 7.25446875 1.335234375 6.041935546875 1.826314453125 4.948060546875C2.317400390625 3.8541796875000003 3.114234375 2.92559765625 4.1208515625 2.2741054687499997C5.127468749999999 1.62261328125 6.3009609375 1.2759960937500001 7.5 1.2759960937500001C8.6990390625 1.2759960937500001 9.872560546875 1.62261328125 10.879154296874999 2.2741054687499997C11.88575390625 2.92559765625 12.682587890625 3.8541796875000003 13.173697265625 4.948060546875C13.664800781250001 6.041935546875 13.829185546875 7.25446875 13.647134765625001 8.439585937499999C13.4650078125 9.624697265625 12.944220703125001 10.732001953125 12.147451171875 11.627994140624999Z" stroke-width="1"></path></g></svg>